<?xml version="1.0" encoding="utf-8"?>
<!-- Generator: Adobe Illustrator 18.1.1, SVG Export Plug-In . SVG Version: 6.00 Build 0)  -->
<svg version="1.1" id="Layer_1" xmlns="http://www.w3.org/2000/svg" xmlns:xlink="http://www.w3.org/1999/xlink" x="0px" y="0px"
	 viewBox="0 0 1024 1024" enable-background="new 0 0 1024 1024" xml:space="preserve">
<g>
	<path fill="#EEEEEE" d="M565.4,162.5l-19.8,18.9L188,539.1l39.6,39.6l35.3-35.3v318.1h247.6V586.4h110.1v275.2h247.6V543.4
		l35.3,35.3l39.6-39.6L585.2,181.4L565.4,162.5z M565.4,240.7l247.6,247.6v318.1H675.5V531.3H455.4v275.2H317.8V488.4L565.4,240.7z"
		/>
</g>
<g>
	<path fill="#DDDDDD" d="M524.8,162.5L505,181.4L147.3,539.1l39.6,39.6l35.3-35.3v318.1h247.6V586.4h110.1v275.2h247.6V543.4
		l35.3,35.3l39.6-39.6L544.5,181.4L524.8,162.5z M524.8,240.7l247.6,247.6v318.1H634.8V531.3H414.7v275.2H277.1V488.4L524.8,240.7z"
		/>
</g>
<g>
	<path fill="#2BCCB1" d="M470.3,162.5l-19.8,18.9L92.8,539.1l39.6,39.6l35.3-35.3v318.1h247.6V586.4h110.1v275.2h247.6V543.4
		l35.3,35.3l39.6-39.6L490,181.4L470.3,162.5z M470.3,240.7l247.6,247.6v318.1H580.3V531.3H360.2v275.2H222.6V488.4L470.3,240.7z"/>
</g>
<g>
</g>
<g>
</g>
<g>
</g>
<g>
</g>
<g>
</g>
<g>
</g>
<g>
</g>
<g>
</g>
<g>
</g>
<g>
</g>
<g>
</g>
<g>
</g>
<g>
</g>
<g>
</g>
<g>
</g>
</svg>
