<?xml version="1.0" encoding="utf-8"?>
<!-- Generator: Adobe Illustrator 18.1.1, SVG Export Plug-In . SVG Version: 6.00 Build 0)  -->
<svg version="1.1" id="Layer_1" xmlns="http://www.w3.org/2000/svg" xmlns:xlink="http://www.w3.org/1999/xlink" x="0px" y="0px"
	 viewBox="0 0 2048 1024" enable-background="new 0 0 2048 1024" xml:space="preserve">
<g>
	<path fill="#EEEEEE" d="M572,216.5l-12.5,11.9L333.9,454.1l25,25l22.2-22.2v200.7h156.2V483.9h69.4v173.6H763V456.8l22.2,22.2
		l25-25L584.5,228.4L572,216.5z M572,265.8l156.2,156.2v200.7h-86.8V449.2H502.6v173.6h-86.8V422.1L572,265.8z"/>
</g>
<g>
	<path fill="#DDDDDD" d="M546.3,216.5l-12.5,11.9L308.2,454.1l25,25l22.2-22.2v200.7h156.2V483.9h69.4v173.6h156.2V456.8l22.2,22.2
		l25-25L558.8,228.4L546.3,216.5z M546.3,265.8l156.2,156.2v200.7h-86.8V449.2H476.9v173.6h-86.8V422.1L546.3,265.8z"/>
</g>
<g>
	<path stroke="#000000" stroke-width="17" stroke-miterlimit="10" d="M928.4,361.5h-32.8V437h-23.6V250.3h52.3
		c18.3,0,32.1,4.8,41.5,14.3c9.4,9.5,14.1,23.5,14.1,41.9c0,11.5-2.5,21.6-7.6,30.2c-5.1,8.6-12.3,15.1-21.6,19.4l36.2,79.4v1.5
		h-25.3L928.4,361.5z M895.5,341.3H924c9.8,0,17.7-3.2,23.5-9.5c5.9-6.3,8.8-14.8,8.8-25.4c0-24-10.9-36-32.6-36h-28.2V341.3z"/>
	<path stroke="#000000" stroke-width="17" stroke-miterlimit="10" d="M1057.7,439.6c-17.3,0-30.5-5.1-39.7-15.5
		c-9.2-10.3-13.9-25.4-14.1-45.3V362c0-20.7,4.5-36.9,13.5-48.7c9-11.8,21.6-17.6,37.8-17.6c16.2,0,28.4,5.2,36.4,15.5
		c8,10.3,12.1,26.5,12.3,48.3v14.9h-77.4v3.2c0,14.9,2.8,25.7,8.4,32.4c5.6,6.8,13.7,10.1,24.2,10.1c6.7,0,12.5-1.3,17.6-3.8
		c5.1-2.5,9.9-6.5,14.3-12l11.8,14.4C1092.9,432.6,1077.9,439.6,1057.7,439.6z M1055.2,315.2c-9.4,0-16.4,3.2-20.9,9.7
		c-4.5,6.5-7.1,16.5-7.7,30.1h54.6v-3.1c-0.6-13.2-3-22.6-7.1-28.2C1069.9,318,1063.6,315.2,1055.2,315.2z"/>
	<path stroke="#000000" stroke-width="17" stroke-miterlimit="10" d="M1152.5,298.3l0.6,15c8.8-11.7,20-17.6,33.7-17.6
		c24.5,0,37,16.4,37.3,49.1V437h-22.6v-91.2c0-10.9-1.8-18.6-5.4-23.1c-3.6-4.6-9.1-6.9-16.3-6.9c-5.6,0-10.7,1.9-15.2,5.6
		c-4.5,3.8-8.1,8.7-10.8,14.7V437h-22.7V298.3H1152.5z"/>
	<path stroke="#000000" stroke-width="17" stroke-miterlimit="10" d="M1287.9,264.7v33.6h20.9v18.3h-20.9v86.1
		c0,5.5,0.9,9.6,2.7,12.5c1.8,2.8,4.9,4.2,9.2,4.2c3,0,6-0.5,9.1-1.5l-0.3,19.1c-5.1,1.7-10.4,2.5-15.8,2.5c-9,0-15.8-3.2-20.5-9.6
		c-4.7-6.4-7.1-15.5-7.1-27.2v-86.2h-21.2v-18.3h21.2v-33.6H1287.9z"/>
	<path stroke="#000000" stroke-width="17" stroke-miterlimit="10" d="M1392.2,386.9c0-8.8,2.1-16.9,6.3-24.4
		c4.2-7.5,12.3-16.2,24.3-26.1c-7-9.8-11.8-17.9-14.4-24.3c-2.6-6.4-3.9-12.7-3.9-18.9c0-14.3,3.7-25.4,11-33.4
		c7.3-8,17.1-12,29.4-12c11.3,0,20.6,3.8,27.8,11.3c7.3,7.5,10.9,16.9,10.9,28.2c0,7.4-1.5,14.1-4.4,20.4c-2.9,6.2-8,12.6-15.4,19
		l-13.2,11.3l32.8,47.3c4-10.2,6-21.6,6-34.4h20.3c0,21.5-4.4,39.3-13.1,53.3l22.8,32.8h-27.2l-9.5-13.7c-4.9,5-10.8,9-17.7,11.9
		c-6.9,2.9-14.1,4.4-21.5,4.4c-15.6,0-28.1-4.9-37.4-14.6C1396.8,415.2,1392.2,402.5,1392.2,386.9z M1443.6,420.2
		c10,0,19.2-4.7,27.6-14.1l-37.1-54l-3.8,3.2c-10.3,9.8-15.5,20.3-15.5,31.5c0,9.9,2.6,18,7.7,24.1
		C1427.5,417.1,1434.6,420.2,1443.6,420.2z M1427,292.4c0,4.6,1.2,9.4,3.5,14.2c2.3,4.9,5.3,10,9,15.5l9.9-8.5
		c5.2-4.2,8.8-8.2,10.6-12.1c1.9-3.9,2.8-8.7,2.8-14.3s-1.7-10.4-5.1-14.2c-3.4-3.8-7.7-5.8-13-5.8c-5.6,0-9.9,2.4-13,7.2
		C1428.6,279.2,1427,285.2,1427,292.4z"/>
	<path stroke="#000000" stroke-width="17" stroke-miterlimit="10" d="M1683.5,389.8c0-9.3-2.5-16.5-7.6-21.4
		c-5-5-14.1-9.8-27.3-14.5c-13.2-4.7-23.2-9.6-30.2-14.8c-7-5.2-12.2-11.1-15.6-17.7c-3.5-6.6-5.2-14.2-5.2-22.8
		c0-14.8,4.9-27,14.8-36.5c9.9-9.6,22.8-14.4,38.8-14.4c10.9,0,20.7,2.4,29.2,7.3c8.5,4.9,15.1,11.7,19.7,20.4
		c4.6,8.7,6.9,18.3,6.9,28.7h-23.6c0-11.5-2.8-20.5-8.3-26.8c-5.6-6.3-13.5-9.5-24-9.5c-9.5,0-16.8,2.7-22.1,8
		c-5.2,5.3-7.8,12.8-7.8,22.3c0,7.9,2.8,14.5,8.5,19.8s14.4,10.1,26.2,14.3c18.4,6.1,31.5,13.6,39.4,22.5
		c7.9,8.9,11.9,20.5,11.9,34.9c0,15.1-4.9,27.2-14.7,36.4c-9.8,9.1-23.2,13.7-40.1,13.7c-10.9,0-20.9-2.4-30.1-7.1
		c-9.2-4.7-16.4-11.4-21.7-20c-5.3-8.6-7.9-18.4-7.9-29.6h23.6c0,11.5,3.2,20.5,9.7,26.9c6.5,6.4,15.2,9.6,26.3,9.6
		c10.3,0,18.1-2.6,23.3-7.9C1680.9,406.2,1683.5,399,1683.5,389.8z"/>
	<path stroke="#000000" stroke-width="17" stroke-miterlimit="10" d="M1784.4,439.6c-17.3,0-30.5-5.1-39.8-15.5
		c-9.2-10.3-13.9-25.4-14.1-45.3V362c0-20.7,4.5-36.9,13.5-48.7c9-11.8,21.6-17.6,37.8-17.6c16.2,0,28.4,5.2,36.4,15.5
		c8,10.3,12.1,26.5,12.3,48.3v14.9h-77.4v3.2c0,14.9,2.8,25.7,8.4,32.4c5.6,6.8,13.7,10.1,24.2,10.1c6.7,0,12.5-1.3,17.6-3.8
		c5.1-2.5,9.9-6.5,14.3-12l11.8,14.4C1819.6,432.6,1804.6,439.6,1784.4,439.6z M1781.8,315.2c-9.4,0-16.4,3.2-20.9,9.7
		c-4.5,6.5-7.1,16.5-7.7,30.1h54.6v-3.1c-0.6-13.2-3-22.6-7.1-28.2C1796.6,318,1790.3,315.2,1781.8,315.2z"/>
	<path stroke="#000000" stroke-width="17" stroke-miterlimit="10" d="M1882.2,437h-22.7V240h22.7V437z"/>
	<path stroke="#000000" stroke-width="17" stroke-miterlimit="10" d="M1942.4,437h-22.7V240h22.7V437z"/>
</g>
<g>
	<path fill="#2BCCB1" d="M512,216.5l-12.5,11.9L273.8,454.1l25,25l22.2-22.2v200.7h156.2V483.9h69.4v173.6h156.2V456.8l22.2,22.2
		l25-25L524.4,228.4L512,216.5z M512,265.8l156.2,156.2v200.7h-86.8V449.2H442.5v173.6h-86.8V422.1L512,265.8z"/>
</g>
<g>
	<path stroke="#000000" stroke-width="17" stroke-miterlimit="10" d="M994.1,711.5h-23.6v-86.3h-75.1v86.3h-23.5V524.8h23.5v80.3
		h75.1v-80.3h23.6V711.5z"/>
	<path stroke="#000000" stroke-width="17" stroke-miterlimit="10" d="M1026.8,635.7c0-20.2,4.9-36.1,14.7-47.9
		c9.8-11.8,22.7-17.6,38.8-17.6c16.1,0,29,5.7,38.8,17.2c9.8,11.5,14.8,27.1,15.1,46.8v14.6c0,20.1-4.9,36-14.6,47.7
		c-9.7,11.7-22.7,17.6-39,17.6c-16.1,0-29-5.7-38.7-17.1c-9.7-11.4-14.7-26.8-15.1-46.2V635.7z M1049.5,648.8
		c0,14.3,2.8,25.5,8.4,33.7c5.6,8.2,13.1,12.2,22.6,12.2c20,0,30.3-14.4,30.9-43.3v-15.6c0-14.2-2.8-25.4-8.5-33.7
		c-5.6-8.2-13.2-12.4-22.7-12.4c-9.3,0-16.8,4.1-22.4,12.4c-5.6,8.3-8.4,19.4-8.4,33.5V648.8z"/>
	<path stroke="#000000" stroke-width="17" stroke-miterlimit="10" d="M1234.2,699.3c-7.5,9.8-18.5,14.7-33,14.7
		c-12.6,0-22.1-4.3-28.5-13c-6.4-8.7-9.7-21.3-9.7-37.9v-90.4h22.6v88.7c0,21.6,6.5,32.4,19.5,32.4c13.8,0,23.3-6.2,28.5-18.5V572.8
		h22.7v138.7h-21.5L1234.2,699.3z"/>
	<path stroke="#000000" stroke-width="17" stroke-miterlimit="10" d="M1357.8,676c0-4.9-1.8-9.1-5.5-12.6
		c-3.7-3.5-10.8-7.6-21.3-12.3c-12.2-5-20.8-9.4-25.8-13c-5-3.6-8.7-7.7-11.2-12.2c-2.5-4.6-3.7-10-3.7-16.3
		c0-11.3,4.1-20.7,12.4-28.1c8.2-7.5,18.8-11.2,31.6-11.2c13.5,0,24.4,3.9,32.6,11.8c8.2,7.9,12.3,18,12.3,30.3h-22.6
		c0-6.2-2.1-11.6-6.3-16c-4.2-4.4-9.5-6.6-16-6.6c-6.7,0-11.9,1.7-15.7,5.2c-3.8,3.5-5.7,8.1-5.7,13.9c0,4.6,1.4,8.3,4.2,11.1
		c2.8,2.8,9.5,6.5,20.1,11.1c16.8,6.6,28.3,13,34.4,19.3c6.1,6.3,9.1,14.3,9.1,24c0,12.1-4.1,21.7-12.4,29
		c-8.3,7.2-19.4,10.9-33.3,10.9c-14.4,0-26.2-4.1-35.1-12.4c-9-8.3-13.5-18.8-13.5-31.5h22.8c0.3,7.7,2.6,13.7,7.1,18.1
		c4.4,4.4,10.7,6.5,18.7,6.5c7.5,0,13.3-1.7,17.2-5.1C1355.8,686.3,1357.8,681.7,1357.8,676z"/>
	<path stroke="#000000" stroke-width="17" stroke-miterlimit="10" d="M1459.6,714.1c-17.3,0-30.5-5.1-39.8-15.5
		c-9.2-10.3-13.9-25.4-14.1-45.3v-16.8c0-20.7,4.5-36.9,13.5-48.7c9-11.8,21.6-17.6,37.8-17.6c16.2,0,28.4,5.2,36.4,15.5
		c8,10.3,12.1,26.5,12.3,48.3v14.9h-77.4v3.2c0,14.9,2.8,25.7,8.4,32.4c5.6,6.8,13.7,10.1,24.2,10.1c6.7,0,12.5-1.3,17.6-3.8
		c5.1-2.5,9.9-6.5,14.3-12l11.8,14.4C1494.8,707.1,1479.8,714.1,1459.6,714.1z M1457,589.7c-9.4,0-16.4,3.2-20.9,9.7
		c-4.5,6.5-7.1,16.5-7.7,30.1h54.6v-3.1c-0.6-13.2-3-22.6-7.1-28.2C1471.8,592.5,1465.5,589.7,1457,589.7z"/>
	<path stroke="#000000" stroke-width="17" stroke-miterlimit="10" d="M1600.4,676c0-4.9-1.8-9.1-5.5-12.6
		c-3.7-3.5-10.8-7.6-21.3-12.3c-12.2-5-20.8-9.4-25.8-13c-5-3.6-8.7-7.7-11.2-12.2c-2.5-4.6-3.7-10-3.7-16.3
		c0-11.3,4.1-20.7,12.4-28.1c8.2-7.5,18.8-11.2,31.6-11.2c13.5,0,24.4,3.9,32.6,11.8c8.2,7.9,12.3,18,12.3,30.3h-22.6
		c0-6.2-2.1-11.6-6.3-16c-4.2-4.4-9.5-6.6-16-6.6c-6.7,0-11.9,1.7-15.7,5.2c-3.8,3.5-5.7,8.1-5.7,13.9c0,4.6,1.4,8.3,4.2,11.1
		c2.8,2.8,9.5,6.5,20.1,11.1c16.8,6.6,28.3,13,34.4,19.3c6.1,6.3,9.1,14.3,9.1,24c0,12.1-4.1,21.7-12.4,29
		c-8.3,7.2-19.4,10.9-33.3,10.9c-14.4,0-26.2-4.1-35.1-12.4c-9-8.3-13.5-18.8-13.5-31.5h22.8c0.3,7.7,2.6,13.7,7.1,18.1
		c4.4,4.4,10.7,6.5,18.7,6.5c7.5,0,13.3-1.7,17.2-5.1C1598.4,686.3,1600.4,681.7,1600.4,676z"/>
</g>
<g>
</g>
<g>
</g>
<g>
</g>
<g>
</g>
<g>
</g>
<g>
</g>
<g>
</g>
<g>
</g>
<g>
</g>
<g>
</g>
<g>
</g>
<g>
</g>
<g>
</g>
<g>
</g>
<g>
</g>
</svg>
